Coordinates
version=1
nRows=13
nColumns=30
inDegrees=yes

Units are S.I. units (second, meters, Newtons, ...)
Angles are in degrees.

endheader
time	floatyaw	floatroll	floatpitch	floatx	floaty	floatz	pro_sup_l	deviation_l	flexion_l	cmc_flexion_l	cmc_abduction_l	mp_flexion_l	ip_flexion_l	2mcp_flexion_l	2mcp_abduction_l	2pm_flexion_l	2md_flexion_l	3mcp_flexion_l	3mcp_abduction_l	3pm_flexion_l	3md_flexion_l	4mcp_flexion_l	4mcp_abduction_l	4pm_flexion_l	4md_flexion_l	5mcp_flexion_l	5mcp_abduction_l	5pm_flexion_l	5md_flexion_l
-0.495000	-160.147433	-5.066637	-73.570646	0.071716	-0.177130	-0.024620	98.597431	2.762966	-0.915543	13.901224	4.063872	-26.675777	-42.663312	32.727688	7.246819	44.529895	30.735327	26.440644	4.277254	46.156114	30.819831	14.941833	-4.429439	54.691462	38.024044	2.497064	-8.147951	65.272492	44.164351
-0.485000	-160.147433	-5.066637	-73.570646	0.070979	-0.176726	-0.025120	98.422873	2.682178	-1.000086	13.925444	4.134295	-26.582266	-42.491116	32.738836	7.240270	44.437289	30.709437	26.449551	4.279384	46.154630	30.836634	15.029442	-4.433537	54.650123	38.054521	2.518468	-8.183560	65.255055	44.187883
-0.475000	-160.147433	-5.066637	-73.570646	0.070233	-0.176345	-0.025619	98.285229	2.598485	-1.077672	13.976433	4.246558	-26.517923	-42.347921	32.753885	7.221476	44.372794	30.691609	26.466792	4.273305	46.150480	30.850439	15.129751	-4.436692	54.582893	38.077097	2.554409	-8.216147	65.213251	44.209528
-0.465000	-160.147433	-5.066637	-73.570646	0.069490	-0.175988	-0.026112	98.190336	2.522917	-1.130954	14.043907	4.396284	-26.499499	-42.263906	32.753764	7.189395	44.342578	30.687817	26.473588	4.260051	46.152535	30.864874	15.221781	-4.437775	54.502383	38.089427	2.596225	-8.236711	65.156189	44.224836
-0.455000	-160.147433	-5.066637	-73.570646	0.068746	-0.175661	-0.026607	98.132582	2.466688	-1.145716	14.114004	4.564980	-26.529350	-42.252193	32.726863	7.148004	44.345907	30.696854	26.457949	4.244055	46.170543	30.883434	15.294745	-4.437305	54.425854	38.090908	2.639466	-8.240080	65.099733	44.230433
-0.445000	-160.147433	-5.066637	-73.570646	0.067991	-0.175373	-0.027115	98.100334	2.440119	-1.116703	14.175997	4.724987	-26.595837	-42.306230	32.675865	7.107427	44.376162	30.709153	26.422196	4.231927	46.212372	30.906800	15.354186	-4.437071	54.369985	38.082342	2.688371	-8.229472	65.061523	44.225202
-0.435000	-160.147433	-5.066637	-73.570646	0.067213	-0.175135	-0.027654	98.083094	2.449787	-1.050117	14.225451	4.848973	-26.680275	-42.406391	32.616271	7.082154	44.424679	30.710809	26.381650	4.230406	46.283124	30.932677	15.417591	-4.438979	54.347990	38.066554	2.753346	-8.218244	65.057822	44.213477
-0.425000	-160.147433	-5.066637	-73.570646	0.066412	-0.174949	-0.028237	98.077144	2.495679	-0.961277	14.262579	4.920588	-26.765449	-42.530710	32.567250	7.086785	44.487081	30.692639	26.356588	4.243984	46.386655	30.958665	15.503581	-4.443966	54.369653	38.050283	2.844276	-8.226660	65.103151	44.209065
-0.415000	-160.147433	-5.066637	-73.570646	0.065598	-0.174802	-0.028875	98.087637	2.570589	-0.868570	14.288208	4.942000	-26.841046	-42.663499	32.540571	7.130901	44.568821	30.660588	26.363397	4.272812	46.528080	30.986685	15.622580	-4.451798	54.442634	38.046465	2.965588	-8.273528	65.210139	44.236233
-0.405000	-160.147433	-5.066637	-73.570646	0.064781	-0.174660	-0.029581	98.126447	2.662995	-0.786783	14.300943	4.934849	-26.905079	-42.799102	32.534704	7.215140	44.684961	30.641422	26.409632	4.311746	46.714637	31.026314	15.774169	-4.461877	54.572903	38.075167	3.116573	-8.365883	65.386662	44.324388
-0.395000	-160.147433	-5.066637	-73.570646	0.063963	-0.174473	-0.030374	98.206373	2.762828	-0.723021	14.297645	4.933373	-26.963081	-42.941606	32.537899	7.330356	44.851451	30.678558	26.493906	4.351387	46.952717	31.094395	15.950452	-4.474278	54.763593	38.161410	3.295469	-8.492800	65.630935	44.497261
-0.385000	-160.147433	-5.066637	-73.570646	0.063123	-0.174186	-0.031285	98.333284	2.867553	-0.676659	14.276782	4.971835	-27.026189	-43.101663	32.538184	7.460723	45.071509	30.817556	26.608771	4.381358	47.241527	31.209907	16.141057	-4.489907	55.013401	38.329170	3.502642	-8.628615	65.929281	44.762016
-0.375000	-160.147433	-5.066637	-73.570646	0.062224	-0.173751	-0.032350	98.498441	2.985182	-0.642535	14.242039	5.071721	-27.107245	-43.290304	32.533222	7.589715	45.326501	31.087061	26.744263	4.394779	47.567299	31.385820	16.335937	-4.509308	55.316021	38.592587	3.739144	-8.745356	66.260632	45.104559
